erDiagram
    users ||--o{ posts : "создает"
    users ||--o{ comments : "пишет"
    users ||--o{ saved_posts : "сохраняет"
    users ||--o{ subscriptions : "подписывается на"
    posts ||--o{ comments : "имеет"
    posts ||--o{ post_categories : "имеет категории"
    categories ||--o{ post_categories : "входит в"

    users {
        int id PK
        string email
        string login
        string password
        datetime created_at
        datetime updated_at
    }

    posts {
        int id PK
        int author_id FK
        string title
        string content
        datetime created_at
        datetime updated_at
    }

    categories {
        int id PK
        string name
    }

    post_categories {
        int post_id FK
        int category_id FK
    }

    saved_posts {
        int user_id FK
        int post_id FK
        datetime saved_at
    }

    comments {
        int id PK
        int post_id FK
        int user_id FK
        string content
        datetime created_at
        datetime updated_at
    }

    subscriptions {
        int subscriber_id FK
        int subscribed_to_id FK
        datetime subscribed_at
    }